ply
format ascii 1.0
comment Created by Blender 3.4.0 - www.blender.org
element vertex 798
property float x
property float y
property float z
element face 1626
property list uchar uint vertex_indices
end_header
-0.612184 -0.210520 0.706309
-0.681238 -0.165837 0.753077
-0.629561 -0.101405 0.703147
0.123613 -0.027316 0.902058
-0.061677 -0.036466 0.857383
0.067641 -0.133799 0.897582
-0.104673 -0.253538 0.813227
-0.108355 -0.266393 0.805213
-0.069632 -0.286165 0.797180
-0.295060 -0.141702 0.200908
-0.360879 -0.058370 0.222564
-0.337859 -0.078675 0.181799
-0.499871 0.269295 1.278294
-0.538099 0.427764 1.338572
-0.524970 0.281151 1.273213
-0.491308 -0.025347 1.140258
-0.531836 -0.016236 1.127918
-0.488264 -0.041547 1.140408
-0.491906 0.177123 1.238086
-0.055217 -0.153887 0.859486
0.218876 -0.139230 0.918332
0.270604 -0.005579 0.901819
-0.692519 -0.210556 0.895427
-0.665823 -0.167625 0.957359
-0.676569 -0.089368 0.909595
0.362590 -0.042321 0.874667
0.380327 0.035043 0.836919
-0.105900 -0.235440 0.824019
0.289275 -0.146794 0.910264
0.234030 -0.248508 0.895172
0.332595 -0.256507 0.866261
-0.706478 -0.201013 0.831212
-0.093175 -0.168508 0.854881
-0.168214 -0.264136 0.826377
-0.491866 -0.010033 1.145522
-0.334834 -0.086201 1.159642
-0.353971 -0.095118 1.147840
-0.353784 -0.124623 1.140267
-0.419548 0.333943 1.254030
-0.450358 0.409557 1.304642
-0.449959 0.191728 1.235241
-0.462418 -0.017983 1.135642
-0.439553 -0.105479 1.143120
-0.434111 -0.093831 1.140990
-0.344947 -0.260200 1.124340
-0.368399 -0.313879 1.113753
-0.322749 -0.240360 1.100108
-0.516504 0.182823 1.231602
0.431993 -0.409817 0.337068
0.392230 -0.465232 0.364876
0.357045 -0.462400 0.272793
-0.350938 -0.109840 1.142773
-0.393990 0.343814 1.198019
-0.419299 0.441595 1.286266
-0.684010 -0.102496 0.769219
0.119122 -0.239026 0.894545
-0.493411 -0.414163 1.045736
-0.549203 -0.398121 1.054852
-0.561718 -0.480129 0.946671
0.263049 -0.322694 0.837743
0.139987 -0.339364 0.826791
-0.516373 -0.493931 0.771528
-0.500272 -0.499456 0.858317
-0.557240 -0.484575 0.834579
-0.566236 -0.501072 0.887943
-0.510167 -0.478760 0.942245
0.077151 0.139515 0.787837
0.171416 0.176716 0.751020
0.126880 0.201834 0.722153
0.600661 -0.059834 0.597983
0.571126 0.028875 0.614155
0.572479 -0.067989 0.668387
-0.534493 0.178255 1.212695
-0.486448 0.157081 1.228871
-0.568174 -0.092472 0.347146
-0.582599 -0.174892 0.385611
-0.602828 -0.046261 0.403352
0.271686 -0.497036 0.234351
0.186302 -0.513273 0.227262
0.199336 -0.505301 0.187892
-0.500847 0.038285 1.164249
-0.516936 0.123739 1.199940
-0.362184 0.053361 0.963371
-0.455384 0.076430 0.991185
-0.406427 0.076732 1.043169
0.199245 -0.499470 0.167679
0.239471 -0.487754 0.143241
0.543348 -0.001460 0.686489
-0.071655 0.079775 1.380335
-0.122984 0.088444 1.353741
-0.113067 0.046089 1.346551
-0.200438 0.068234 1.304821
-0.507830 0.470499 1.369325
0.060709 0.242670 1.295993
0.094777 0.230476 1.293263
0.091552 0.232502 1.269166
-0.439503 -0.480255 0.779043
0.199255 -0.492352 0.156907
0.254769 -0.427591 0.092883
0.152969 -0.441024 0.104705
0.618759 -0.008394 0.096981
0.693487 -0.024661 0.144692
0.605306 -0.013338 0.086719
0.299789 -0.443490 0.639434
0.256841 -0.388858 0.683442
0.207165 -0.427750 0.627744
0.584549 -0.007588 0.078564
-0.471227 -0.399773 0.517024
-0.370433 -0.396810 0.644530
-0.487006 -0.389572 0.579447
-0.419288 -0.352657 0.714718
-0.509602 -0.347971 0.653913
-0.325013 -0.345828 0.140476
-0.311060 -0.325269 0.140705
-0.327664 -0.369912 0.131462
0.191759 -0.505733 0.583552
0.109661 -0.472060 0.610660
0.058757 -0.523185 0.555464
0.286727 -0.488370 0.187292
0.250200 -0.521398 0.434031
0.180889 -0.540027 0.440682
0.244786 -0.528796 0.373395
0.097434 -0.502614 0.213564
0.133361 -0.528783 0.275719
0.561144 -0.032011 0.048231
0.021074 -0.290176 0.831631
-0.410684 -0.407685 0.441808
-0.410671 -0.413849 0.462020
-0.426709 -0.421091 0.490555
-0.401312 -0.388865 0.386841
-0.410695 -0.415929 0.472065
-0.377803 -0.424451 0.562142
0.165331 -0.509917 0.171114
0.288165 -0.460347 0.594563
-0.137162 0.005877 1.108686
-0.226316 -0.054318 1.075657
-0.278294 -0.023465 1.027074
0.243619 -0.533340 0.484272
0.132930 -0.532666 0.532317
0.035819 0.122578 1.190775
0.059666 0.182211 1.233033
0.089166 0.157442 1.235051
-0.370963 -0.410569 0.460553
0.093306 0.171678 0.005107
-0.041699 0.195321 0.001199
0.017410 0.224139 -0.005098
0.180184 -0.530683 0.321706
0.234717 -0.526479 0.262120
-0.340415 -0.415801 0.426187
-0.333298 -0.420250 0.551575
-0.328539 -0.328557 0.752053
-0.408803 -0.349198 0.733574
0.205938 -0.388263 0.755009
-0.523478 -0.134615 1.145388
0.553329 0.044710 0.636649
0.547488 0.039701 0.648726
0.626927 -0.294621 0.244467
0.536320 -0.295982 0.204494
0.588171 -0.308215 0.161095
-0.482483 0.405380 1.093078
-0.478805 0.438153 1.116610
-0.439574 0.454074 1.118571
0.001732 0.199463 1.285901
0.311280 -0.497373 0.529336
-0.305280 -0.419081 0.093900
-0.386698 -0.385931 0.111625
-0.346593 -0.448698 0.041269
-0.295941 -0.355251 0.325233
-0.249737 -0.355423 0.714821
0.411379 0.210328 0.162451
0.394208 0.248692 0.204486
0.477395 0.146748 0.204530
0.571426 -0.273542 0.276923
0.670401 -0.123969 0.105123
0.650388 -0.197180 0.099557
0.637522 -0.107823 0.078724
0.599838 -0.235255 0.321483
-0.067088 -0.508779 0.062429
-0.125213 -0.457642 0.012581
-0.070240 -0.501073 0.016475
0.369680 -0.377098 0.691761
0.370865 -0.331226 0.774596
0.313106 -0.377330 0.705747
0.422346 0.236558 0.351938
0.490347 0.170310 0.342460
0.470255 0.181309 0.278074
0.093776 0.262466 1.308355
-0.279773 -0.355936 0.143884
-0.264765 -0.425343 0.489483
-0.276044 -0.416712 0.535576
-0.277236 -0.416100 0.582176
0.539826 0.024344 0.071194
0.173004 -0.412360 0.661667
-0.268346 0.127269 -0.001327
-0.342332 0.096166 0.046349
-0.252538 0.114063 0.070784
0.438392 -0.378999 0.642564
0.621979 -0.084193 0.394005
0.611382 -0.011577 0.395478
0.617447 -0.068556 0.497779
0.366731 -0.389852 0.679740
0.361943 -0.461644 0.509417
0.167265 -0.414355 0.662558
0.138044 -0.413363 0.632967
0.497638 -0.296389 0.135954
-0.254295 -0.394894 0.369406
-0.256944 -0.272810 0.803970
0.568810 -0.285931 0.107710
-0.322773 -0.119344 1.128558
-0.254430 -0.073089 1.173798
-0.279427 -0.058284 1.204365
0.150494 -0.553111 0.372666
-0.291486 -0.118789 1.090582
-0.213417 -0.402149 0.479009
-0.188735 -0.389711 0.615938
-0.228267 -0.385544 0.667769
0.366281 -0.405353 0.663262
-0.246046 -0.423008 0.026721
-0.177394 -0.389189 0.090404
-0.490094 0.120627 1.027641
-0.477569 0.238747 1.054814
-0.419905 0.104188 1.031153
0.417910 -0.448372 0.505083
0.389772 -0.433214 0.606381
0.106581 -0.410677 0.697612
-0.196480 -0.368476 0.163437
-0.255628 -0.351881 0.168291
-0.174604 -0.408279 0.442355
-0.210712 -0.044175 1.183595
-0.199664 -0.019305 1.271963
-0.163277 -0.390093 0.281398
-0.214386 -0.385496 0.292444
-0.131255 -0.391649 0.412935
-0.160533 -0.409977 0.519986
-0.163991 -0.342580 0.714260
-0.267453 -0.063603 0.947956
-0.294970 0.016327 0.937127
-0.280084 -0.045492 1.009459
0.103300 -0.522226 0.324363
0.100929 0.202673 1.273151
-0.365891 -0.183849 0.059941
-0.313830 -0.216345 0.118222
-0.288785 -0.156987 0.124469
-0.156606 -0.378678 0.120462
-0.123879 -0.357547 0.158522
-0.122209 -0.421074 0.578635
-0.398707 0.535695 1.210656
-0.386989 0.580961 1.297585
-0.400072 0.466896 1.256193
-0.065908 0.158980 1.362851
-0.140415 0.138529 1.279597
-0.086941 -0.342521 0.225598
-0.102598 -0.401859 0.481313
-0.089311 -0.386598 0.666059
0.318140 -0.414246 0.022091
-0.258417 -0.123100 0.944406
-0.265149 -0.126808 0.959570
-0.098829 -0.390927 0.417984
-0.100975 -0.412645 0.521364
-0.101016 -0.414995 0.521461
-0.090070 -0.414915 0.533911
0.658598 -0.250571 0.317511
-0.151006 0.000228 1.297152
-0.089824 0.052699 1.331799
-0.436922 -0.479068 0.841247
-0.464724 -0.456025 0.922096
-0.076215 -0.434759 0.520069
-0.050726 -0.416877 0.578632
-0.408075 -0.233334 0.056803
0.732160 -0.028334 0.242022
0.724514 -0.025684 0.306325
0.759731 -0.100031 0.251289
-0.452137 0.334447 1.078001
-0.422585 0.343733 1.108002
-0.418035 0.259154 1.075389
-0.056840 -0.376031 0.282330
-0.047215 -0.467780 0.134062
-0.069650 -0.355435 0.176664
-0.404975 -0.205048 1.146378
-0.041775 -0.412050 0.636479
-0.007118 -0.373266 0.727727
-0.666185 -0.215129 1.083719
-0.667893 -0.150186 1.095942
-0.673787 -0.159313 1.001774
-0.003920 -0.497351 0.096349
-0.013306 -0.425885 0.160407
-0.071202 0.000898 1.173711
-0.044843 0.049127 1.147581
-0.025052 0.028020 1.181469
-0.498094 -0.312485 1.120675
-0.570420 -0.220470 1.133855
-0.611261 -0.300376 1.090219
0.025930 -0.334505 0.799702
-0.283013 0.016328 1.054523
-0.219458 0.039343 1.080114
0.325047 -0.413202 0.121405
0.043794 -0.453908 0.134792
-0.076775 0.127466 1.183152
-0.166367 0.119000 1.176749
-0.092906 0.154591 1.234027
0.559130 0.099424 0.331210
0.581866 0.033045 0.317428
-0.037992 -0.512534 0.485624
0.004696 -0.536875 0.453529
0.043452 -0.464788 0.161623
0.025457 -0.491134 0.260680
-0.016182 -0.492225 0.360899
0.400475 -0.104157 0.860976
0.026576 -0.414598 0.616765
-0.328515 0.012172 1.026102
0.589288 0.043195 0.437138
0.089465 -0.542066 0.423021
0.578740 0.080297 0.517408
0.606314 0.003260 0.522753
-0.427838 0.521791 1.167061
0.441163 -0.349793 0.698083
-0.552161 0.332972 1.270103
0.001946 -0.372700 0.048341
-0.000566 -0.421699 0.006503
-0.148849 -0.350607 0.004035
0.067712 -0.413020 0.626917
0.691612 -0.270273 0.252705
0.347901 -0.413664 0.081791
0.536040 0.045409 0.662483
0.493612 0.063290 0.726149
-0.254311 0.072245 1.148887
0.338515 -0.486524 0.332338
0.719878 -0.196803 0.165596
0.646346 -0.276784 0.162111
-0.190885 -0.398492 0.010244
0.048781 0.206323 1.399252
0.106312 0.248451 1.307744
0.088606 0.273670 1.368746
0.332289 -0.455874 0.192670
0.448591 0.176596 0.151260
0.410253 0.071466 0.077330
0.393348 0.164758 0.097185
-0.311054 -0.287053 0.262263
-0.266733 -0.343542 0.270877
-0.351535 -0.093194 0.128433
-0.363979 -0.027815 0.136592
-0.189060 0.206607 0.497647
-0.246172 0.206329 0.559453
-0.128182 0.238821 0.483701
0.378569 -0.447239 0.200687
-0.062464 0.068566 1.224899
-0.121199 0.050273 1.250462
-0.165293 0.002518 1.199479
-0.426276 -0.374106 1.051324
0.535217 -0.319400 0.581070
0.594318 -0.221719 0.569293
0.539434 -0.243456 0.690002
-0.390506 -0.401562 0.846896
-0.390092 -0.385268 0.791016
0.440505 -0.403147 0.228062
-0.278306 -0.296550 0.800124
-0.077383 0.095740 1.153968
-0.077907 0.113266 1.167031
0.507630 -0.341582 0.608017
0.466737 -0.295458 0.748264
-0.467194 -0.458389 0.740204
-0.284788 -0.103445 1.035536
-0.391907 0.568476 1.329757
-0.425432 0.545135 1.375531
-0.404957 -0.344985 0.963981
0.423440 -0.449812 0.427436
0.331363 -0.504376 0.415059
0.390978 -0.382435 0.139892
-0.069309 0.095423 1.278169
-0.023472 0.198700 1.326811
0.557196 -0.309047 0.301377
-0.203551 -0.058414 1.142109
0.733248 -0.074591 0.342443
-0.343964 -0.373586 0.855750
-0.376430 -0.337627 1.063004
-0.026584 0.108727 1.399893
0.722855 -0.106733 0.155243
-0.319443 -0.273324 0.979907
0.492313 0.175913 0.410221
-0.491640 -0.071579 0.044537
-0.481921 0.019741 0.001584
-0.477547 -0.095764 0.006845
-0.421884 0.561153 1.221251
-0.276799 -0.412585 0.005948
0.369042 -0.389048 0.032392
-0.283168 -0.299157 0.886490
-0.327731 -0.272924 1.035764
0.714360 -0.239420 0.297456
0.745065 -0.167697 0.332012
0.693668 -0.232228 0.325821
0.044773 0.096143 1.195230
0.030975 0.089161 1.213810
-0.278537 -0.168496 0.973923
0.510914 -0.361715 0.248608
0.438725 -0.351188 0.124655
0.464944 -0.258953 0.053800
0.421037 -0.341288 0.066693
0.619066 -0.194417 0.356294
0.607607 -0.222494 0.470896
-0.139655 -0.031136 1.161169
-0.300935 -0.222026 0.183193
0.050742 0.182731 1.318551
0.493056 -0.394826 0.410074
0.503471 -0.388365 0.522482
0.450200 -0.413712 0.545352
-0.258415 -0.223205 0.919608
0.566837 -0.302827 0.481042
-0.238399 0.128579 0.276086
-0.219778 0.163047 0.343240
-0.165682 0.158731 0.346179
0.516341 -0.362809 0.357106
0.625740 -0.135694 0.373051
0.550089 -0.314773 0.547093
0.542586 -0.320280 0.563411
0.485719 0.008972 0.040763
0.443979 -0.035949 0.010020
0.394470 0.030757 0.031749
-0.503510 0.081848 0.883189
-0.521316 0.057323 1.015075
-0.226093 -0.199214 0.856813
0.750026 -0.188510 0.247602
-0.437707 0.162253 0.591777
-0.402260 0.167872 0.647745
-0.376340 0.179984 0.603257
0.630727 0.032059 0.134908
-0.625674 -0.074555 1.008605
-0.003737 -0.496415 0.015211
0.687012 -0.026103 0.334379
0.689324 -0.100847 0.369296
-0.314447 -0.276060 0.144535
-0.672803 -0.264506 0.778534
-0.675934 -0.394943 0.771162
-0.691129 -0.365276 0.823440
-0.427937 0.081276 0.914663
0.065671 -0.475019 0.027540
-0.348158 0.042276 0.118015
-0.296749 0.072117 0.159380
0.137187 -0.445896 0.009598
0.184474 -0.439129 0.014529
0.698141 -0.123844 0.129080
0.679889 0.033850 0.220164
-0.213498 0.108771 0.125997
-0.221491 0.106179 0.199339
-0.119864 0.097432 0.171076
-0.009545 0.120315 1.182312
-0.620199 -0.122091 1.117846
-0.606584 -0.050750 1.094435
-0.654631 -0.100458 1.076313
-0.125146 0.110328 0.228796
-0.653244 -0.136709 0.631958
-0.647339 -0.070309 0.604825
-0.646248 -0.058896 0.500536
-0.656260 -0.182985 0.527821
-0.394504 0.277000 1.135921
-0.395418 0.198883 1.174759
-0.122849 -0.237510 0.005830
-0.134134 -0.194654 -0.000328
-0.170951 0.190672 0.434644
-0.623586 -0.067731 0.714104
-0.585618 0.002274 0.724701
-0.657159 -0.070519 0.749867
-0.640518 -0.068680 0.735387
0.337370 0.180784 0.027489
0.360236 0.173296 0.050510
0.337880 0.153414 0.004703
-0.588866 -0.270868 0.430443
-0.624668 -0.160221 0.435082
-0.616510 -0.230038 0.476201
0.486704 0.072386 0.154425
0.517857 0.120962 0.572543
0.533442 0.082647 0.639140
0.537928 0.148870 0.464042
-0.084281 0.228319 0.572197
-0.069263 0.298765 0.539992
-0.668965 -0.413829 0.845091
-0.651662 -0.250688 0.962923
-0.309459 -0.178383 0.212573
-0.460290 -0.013976 0.085189
-0.443888 -0.082601 0.092932
0.181121 0.073254 0.856222
0.125828 0.073761 0.864417
0.038822 0.220736 1.429504
-0.009679 0.148003 1.428705
0.606549 -0.001728 0.309409
-0.303865 0.048134 0.872559
-0.362358 0.081194 0.824031
-0.685752 -0.086457 0.834896
-0.634886 -0.030599 0.962583
-0.576741 0.016568 0.999919
-0.630922 0.019792 0.846945
0.372812 0.013379 0.006945
-0.602845 0.050132 0.549922
0.512288 0.100277 0.210806
0.523049 0.098792 0.225841
0.498252 0.102549 0.194377
-0.657514 -0.039038 0.782864
-0.408685 0.106894 1.136698
-0.389115 0.030558 1.051623
0.249729 0.221495 0.025730
0.335306 0.204164 0.047856
0.543257 0.057265 0.208848
-0.627585 -0.069783 0.460869
0.551699 -0.207380 0.050560
0.493655 -0.106390 0.010294
-0.063229 -0.159344 0.034919
-0.102978 -0.313674 0.039527
0.118411 -0.392505 0.007333
-0.670840 -0.226930 1.027646
-0.105363 -0.121003 -0.002075
-0.672134 -0.231725 1.043969
0.350583 0.175584 0.039455
-0.438856 0.562748 1.329961
-0.492400 0.518793 1.379626
-0.048317 -0.264484 0.039280
-0.422700 -0.288841 0.070266
-0.413114 -0.311603 0.103830
-0.417402 -0.289724 0.081238
-0.502410 0.510342 1.350035
0.204462 0.200640 -0.001829
-0.430680 -0.288315 0.053846
-0.141698 0.289163 0.001791
-0.207394 0.260363 -0.000070
-0.132226 0.279263 0.076281
0.526895 0.108440 0.244063
0.682592 -0.123902 0.114565
-0.652287 -0.291103 1.033179
0.498274 -0.210342 0.768833
0.397588 -0.277052 0.824445
0.693947 -0.217180 0.339541
0.693865 -0.203622 0.350205
0.698303 -0.177601 0.361454
0.696869 -0.153495 0.367361
-0.451274 0.049434 1.156843
0.689307 -0.153488 0.370403
0.669599 -0.146064 0.370924
0.641992 -0.075995 0.363605
-0.251260 -0.129119 0.932432
-0.112849 -0.077796 0.867803
0.058451 0.268614 1.392924
-0.395799 0.007387 1.102729
-0.546024 0.050765 0.372823
-0.508679 0.144960 0.466928
-0.439278 0.153084 0.386246
-0.390442 -0.057538 1.140409
-0.668701 -0.240937 1.049515
-0.145198 0.194127 0.669986
-0.223998 -0.079542 0.896962
-0.296976 -0.286894 0.208358
-0.477110 -0.230649 1.145756
-0.165316 0.012060 0.871801
-0.109672 0.050932 0.833118
-0.216816 -0.160636 0.878666
-0.045381 -0.256994 0.038922
-0.262445 0.012239 0.889678
0.491651 -0.032409 0.778967
0.474575 -0.151015 0.796646
-0.520999 0.114795 1.191241
-0.076503 -0.057716 0.037620
0.006676 -0.021911 0.039748
-0.520355 0.095300 1.179915
0.459603 -0.152011 0.810572
0.002123 -0.486869 0.570937
0.445985 -0.152716 0.822667
0.400758 -0.191331 0.855665
-0.541703 0.476567 1.346120
-0.121071 -0.472957 0.074204
-0.046305 -0.504979 0.431543
-0.149129 -0.126668 0.009818
-0.152933 -0.191383 0.012464
-0.429703 0.027366 0.270185
-0.371361 0.154082 0.351486
-0.343426 0.060498 0.265606
-0.601246 -0.415260 0.999697
-0.132731 -0.125150 -0.002264
-0.552574 0.253426 1.209781
-0.563917 -0.323975 0.455941
-0.537267 0.072224 1.127335
-0.329608 -0.017492 1.196012
-0.345079 0.160158 0.734249
-0.197432 0.145115 0.765957
-0.306495 0.201000 0.627138
-0.228411 0.087286 1.235238
-0.387318 -0.415086 0.006369
-0.490664 -0.331683 0.367177
-0.416680 -0.391637 0.022613
-0.543577 -0.354539 0.506457
-0.615567 -0.460009 0.842227
-0.607247 -0.458217 0.780362
-0.615164 -0.462314 0.910851
-0.553528 0.400993 1.285451
-0.092954 0.209327 0.144872
0.087352 0.220666 0.659876
0.169262 0.204809 0.685540
-0.643018 -0.363403 0.998293
-0.072434 0.303182 0.316783
-0.108541 0.310236 0.408760
-0.023813 0.352993 0.331511
-0.573624 -0.316324 0.591014
-0.446578 -0.329586 0.025508
-0.414457 -0.237633 0.002572
-0.191069 0.183148 0.701151
-0.580697 0.039307 0.909401
-0.561325 0.054505 0.811536
-0.645740 -0.226198 0.591461
-0.658108 -0.236855 1.075678
-0.420059 -0.126700 0.073028
-0.559362 -0.298179 0.688638
-0.417752 -0.162017 0.019248
0.411992 0.233061 0.475679
-0.411215 0.085609 0.795855
0.282776 0.118452 0.005475
0.241133 0.072952 0.042481
0.206160 0.114222 0.049084
-0.034706 0.213827 0.679127
-0.502782 0.283861 1.074676
-0.512625 0.292469 1.093187
-0.503304 -0.354859 0.695080
0.250867 -0.418476 0.009964
-0.594895 -0.260744 0.713957
-0.258766 0.014853 1.262266
0.470443 0.111284 0.697251
0.424479 0.073307 0.772745
-0.209917 -0.272795 0.002007
-0.475562 0.446410 1.219565
-0.458027 0.507359 1.174030
0.088806 0.231730 0.003405
-0.493828 0.071999 0.757431
-0.505668 0.413513 1.259900
-0.502710 0.277074 1.148573
-0.509855 0.331891 1.202601
0.056566 0.045450 0.857136
-0.551752 0.332139 1.238904
0.274276 0.182381 0.727539
0.232190 0.209801 0.617832
0.195810 0.197531 0.682612
-0.161331 0.231128 0.111496
0.413841 0.068803 0.788801
0.381509 0.123681 0.760545
0.393140 0.070403 0.801938
-0.075273 0.338869 0.480564
0.363922 0.233944 0.539575
0.281143 0.294932 0.530413
0.248627 0.059884 0.870216
0.280449 0.129942 0.813074
-0.056300 0.288103 0.237688
-0.115520 0.262476 0.364476
-0.061234 0.247332 0.173671
-0.093901 0.205063 0.242793
-0.021382 0.235728 0.589764
0.310344 0.224289 0.589123
0.238914 0.286714 0.569999
-0.143489 0.199933 0.393754
-0.515515 0.197595 1.133198
-0.237206 0.218070 -0.000714
-0.224895 0.204877 0.065088
-0.207616 0.250214 0.041998
-0.525364 0.126317 1.108961
-0.541595 0.166573 1.145172
0.004431 0.200062 1.423950
-0.684258 -0.283677 0.850726
-0.527960 0.077548 1.066258
-0.254384 0.167608 0.390817
0.039257 0.369928 0.481286
-0.005226 0.332403 0.548314
0.113907 0.318197 0.571206
0.207696 0.174699 0.766561
0.650258 0.040229 0.249038
0.056639 0.298804 0.582682
-0.536988 -0.195137 0.331761
-0.533684 0.094276 0.647955
-0.535859 0.123301 0.549180
0.029893 0.111429 0.798993
-0.057255 0.161464 0.738303
-0.147828 0.147140 0.763527
0.199944 0.191515 0.697420
0.104358 0.228703 0.618743
-0.343383 0.010050 0.195721
-0.601911 0.029548 0.467421
-0.596005 0.031085 0.647603
-0.553475 0.026606 0.732015
0.010296 0.160077 0.760663
0.428642 0.179869 0.611703
-0.551285 0.021959 1.086363
-0.322954 0.017510 1.176045
0.020626 0.151493 0.044146
-0.059401 0.162358 0.042747
-0.432838 0.053822 0.061751
-0.517460 -0.020569 0.317169
-0.473921 0.084724 0.349086
-0.013626 0.218559 0.652819
0.387835 0.246432 0.261971
0.501438 0.165782 0.532641
0.355551 0.206969 0.633926
-0.040893 0.090070 0.815207
-0.323588 0.107887 -0.005254
-0.032609 0.268946 0.008958
-0.085791 0.257828 -0.005302
-0.082220 0.280156 0.007403
0.336968 0.175113 0.674852
-0.287169 0.118245 0.812442
-0.049861 -0.289758 0.040854
-0.223324 0.071085 0.862727
0.156436 0.329885 0.538319
0.171684 0.344071 0.464637
-0.200734 0.111610 0.825000
0.051377 0.250335 0.040150
-0.346843 0.204974 0.558183
-0.338388 0.199511 0.442154
0.585090 0.063842 0.161264
-0.297162 0.114252 0.304894
-0.436261 0.062879 -0.006122
0.503879 0.059691 0.117968
-0.412470 0.117505 0.335785
-0.412492 0.132241 0.350473
-0.407903 0.142463 0.357939
-0.280930 0.107533 0.250516
0.379722 0.264695 0.327800
-0.332835 0.018247 1.077823
-0.137888 0.133082 0.041321
0.317684 0.243741 0.137911
0.308183 0.275437 0.204539
0.301676 0.285793 0.280142
0.290784 0.297806 0.350621
0.261990 0.316453 0.374793
-0.451400 0.169016 0.466125
-0.405590 0.081403 0.001999
0.203576 0.300331 0.222614
0.232461 0.271139 0.136179
0.182078 0.235705 0.084027
0.188260 0.321897 0.267322
0.177476 0.338318 0.388388
0.149170 0.328187 0.318720
0.143544 -0.129022 0.040775
0.032572 -0.157235 0.039008
0.109803 0.277649 0.114943
0.116653 0.306536 0.173352
0.034706 0.320469 0.202015
0.055659 0.362087 0.359712
0.102731 0.356065 0.462462
0.030425 0.260254 0.094662
0.048850 0.342664 0.254220
0.234797 -0.003773 0.000423
-0.025091 0.365255 0.397085
0.009154 0.357370 0.326950
0.009188 0.359098 0.337000
0.009068 0.363323 0.357157
-0.030701 0.259247 0.122151
-0.146224 -0.428996 0.011634
0.152047 -0.069007 0.040591
0.168712 -0.100504 0.022580
0.047626 -0.188660 0.039034
0.031292 -0.151664 0.038619
0.388309 -0.159766 0.021020
0.420850 -0.173463 0.005537
0.284529 -0.243947 0.003497
0.340539 -0.364483 0.006923
0.308765 -0.299690 0.008341
0.379894 -0.273520 0.012148
0.398317 -0.070310 0.004566
0.226083 -0.366566 0.005561
0.336942 -0.028811 0.012721
0.239008 -0.049106 0.005499
0.264320 -0.292605 0.045913
0.204975 -0.322709 0.049660
0.083782 -0.357446 0.049678
0.182801 -0.212013 0.042152
0.191989 -0.158627 0.007855
0.050417 -0.461912 0.008284
0.183807 -0.093685 0.008346
-0.649617 -0.338111 0.734054
0.196825 -0.096871 0.003030
-0.656317 -0.372979 0.743945
-0.567100 -0.326672 0.702429
0.240734 -0.204689 0.002837
-0.637867 -0.376703 0.730958
-0.018968 -0.229334 0.038137
-0.024651 -0.209901 0.037771
-0.623716 -0.370732 0.723535
-0.588054 -0.411949 0.719280
0.234381 0.148085 0.005005
-0.529198 -0.251396 0.344993
-0.016805 -0.237383 0.039104
-0.462591 -0.105574 0.250142
-0.467986 -0.181048 0.264539
-0.399103 -0.320450 0.304573
-0.408167 -0.148719 -0.001381
-0.310809 -0.088756 -0.003167
-0.421220 -0.351384 0.005019
-0.196645 0.121314 -0.001021
-0.211934 0.039139 -0.002189
-0.152187 0.182240 -0.000598
-0.151825 -0.042798 -0.004555
-0.206749 -0.073597 0.010078
-0.150365 0.036041 0.040255
-0.107110 0.202704 -0.002117
-0.105758 0.188516 0.006534
-0.102790 0.173226 0.024431
-0.157983 -0.122122 0.015981
3 0 1 2
3 3 4 5
3 6 7 8
3 9 10 11
3 12 13 14
3 15 16 17
3 12 14 18
3 5 4 19
3 3 20 21
3 22 23 24
3 3 5 20
3 21 25 26
3 8 27 6
3 28 29 30
3 31 22 24
3 32 33 27
3 34 16 15
3 35 36 37
3 38 39 40
3 41 42 43
3 44 45 46
3 18 14 47
3 48 49 50
3 36 37 51
3 52 53 38
3 1 31 54
3 20 5 55
3 56 57 58
3 39 12 40
3 59 55 60
3 61 62 63
3 62 64 63
3 62 65 64
3 64 65 58
3 65 56 58
3 66 67 68
3 19 27 8
3 69 70 71
3 18 72 73
3 27 7 6
3 6 33 7
3 20 55 29
3 74 75 76
3 29 55 59
3 77 78 79
3 80 72 81
3 80 73 72
3 82 83 84
3 85 86 79
3 70 87 71
3 88 89 90
3 89 91 90
3 92 13 12
3 93 94 95
3 96 62 61
3 97 86 85
3 98 86 99
3 100 101 102
3 103 104 105
3 106 100 102
3 5 19 55
3 107 108 109
3 110 111 109
3 108 110 109
3 112 113 114
3 115 116 117
3 118 77 86
3 119 120 121
3 122 78 123
3 106 102 124
3 19 32 27
3 33 6 27
3 55 19 125
3 126 127 128
3 129 126 128
3 127 130 128
3 128 131 107
3 131 108 107
3 132 78 122
3 103 105 133
3 126 130 127
3 134 135 136
3 120 137 138
3 139 140 141
3 142 126 129
3 142 127 126
3 142 130 127
3 142 128 130
3 143 144 145
3 85 79 132
3 121 146 147
3 93 95 140
3 129 148 142
3 142 149 128
3 128 149 131
3 131 149 108
3 108 150 110
3 110 150 151
3 152 59 60
3 16 153 17
3 97 132 99
3 86 97 99
3 70 154 155
3 156 157 158
3 159 160 161
3 41 80 34
3 162 93 140
3 163 133 115
3 164 165 166
3 164 114 165
3 34 15 17
3 167 148 129
3 148 149 142
3 108 168 150
3 169 170 171
3 156 172 157
3 173 174 175
3 156 176 172
3 177 178 179
3 180 181 182
3 183 184 185
3 93 186 94
3 164 187 114
3 187 112 114
3 148 188 149
3 189 190 149
3 190 108 149
3 190 168 108
3 191 106 124
3 97 85 79
3 152 192 104
3 193 194 195
3 180 196 181
3 197 198 199
3 200 180 182
3 133 201 103
3 202 203 105
3 79 78 132
3 158 157 204
3 205 188 148
3 188 189 149
3 150 168 206
3 207 158 204
3 208 209 210
3 211 121 120
3 208 212 209
3 213 188 205
3 214 190 189
3 214 215 190
3 215 168 190
3 103 216 182
3 217 218 164
3 188 213 189
3 219 220 221
3 222 223 201
3 192 202 224
3 164 218 187
3 218 225 187
3 225 226 187
3 205 227 213
3 189 213 214
3 209 228 229
3 170 185 171
3 119 137 120
3 225 230 231
3 231 230 205
3 232 227 205
3 227 233 213
3 233 214 213
3 214 234 215
3 215 234 168
3 168 33 206
3 235 236 237
3 146 211 238
3 239 141 95
3 240 241 242
3 218 243 225
3 243 244 225
3 205 230 232
3 245 214 233
3 234 33 168
3 246 247 248
3 249 250 91
3 251 225 244
3 251 230 225
3 232 252 233
3 227 232 233
3 214 253 234
3 8 33 234
3 98 99 254
3 97 85 132
3 182 104 103
3 255 235 256
3 257 232 230
3 251 257 230
3 257 252 232
3 252 258 233
3 258 259 233
3 259 260 233
3 233 260 245
3 253 214 245
3 261 176 156
3 262 263 90
3 258 260 259
3 62 264 265
3 224 152 60
3 259 258 252
3 266 258 259
3 266 260 258
3 260 267 245
3 245 267 253
3 8 234 253
3 268 241 240
3 269 270 271
3 272 273 274
3 251 275 257
3 21 28 25
3 124 101 175
3 53 39 38
3 138 163 115
3 276 277 244
3 278 44 208
3 279 253 267
3 279 280 253
3 21 20 28
3 281 282 283
3 280 8 253
3 284 276 177
3 285 277 276
3 28 20 29
3 18 47 73
3 286 287 288
3 289 290 291
3 280 292 8
3 292 125 8
3 136 293 294
3 30 59 181
3 115 133 105
3 147 146 123
3 295 86 98
3 284 296 276
3 276 296 285
3 297 298 299
3 208 37 278
3 202 152 224
3 300 198 301
3 40 12 18
3 117 302 303
3 296 304 285
3 305 303 306
3 28 307 25
3 279 308 280
3 201 223 103
3 82 309 236
3 198 300 310
3 77 147 78
3 216 103 223
3 216 200 182
3 78 147 123
3 122 305 304
3 305 238 303
3 311 138 303
3 138 117 303
3 224 280 308
3 224 292 280
3 312 313 310
3 161 314 246
3 199 313 69
3 137 163 138
3 196 315 181
3 122 123 305
3 238 305 123
3 60 125 292
3 121 211 146
3 14 13 316
3 317 318 319
3 86 77 79
3 238 211 303
3 303 211 311
3 120 138 311
3 138 115 117
3 203 320 116
3 320 203 224
3 224 60 292
3 156 321 261
3 99 132 304
3 296 99 304
3 304 132 122
3 123 146 238
3 211 120 311
3 254 322 98
3 323 324 87
3 298 293 325
3 50 326 147
3 327 328 174
3 329 218 217
3 62 265 65
3 330 331 332
3 77 50 147
3 333 50 77
3 334 335 336
3 118 333 77
3 147 326 121
3 337 338 167
3 99 296 284
3 200 196 180
3 339 11 340
3 341 342 343
3 265 56 65
3 333 344 50
3 201 163 137
3 345 346 347
3 265 348 56
3 349 350 351
3 352 264 96
3 353 352 96
3 354 48 344
3 206 355 150
3 297 356 357
3 358 359 315
3 353 96 360
3 237 135 361
3 53 362 363
3 264 352 265
3 364 348 265
3 151 353 360
3 49 365 366
3 352 364 265
3 354 344 367
3 368 263 346
3 299 369 162
3 228 262 229
3 172 370 157
3 366 201 137
3 119 366 137
3 182 59 152
3 371 209 212
3 271 270 372
3 293 298 294
3 150 373 352
3 353 150 352
3 373 364 352
3 364 374 348
3 48 365 49
3 368 375 263
3 101 376 175
3 151 150 353
3 231 338 226
3 377 364 373
3 183 378 184
3 379 380 381
3 217 164 166
3 382 247 246
3 377 374 364
3 166 383 217
3 101 271 376
3 50 49 326
3 222 201 366
3 365 222 366
3 254 384 322
3 385 377 373
3 386 45 374
3 367 295 322
3 377 386 374
3 90 263 88
3 387 388 389
3 390 391 288
3 355 373 150
3 373 355 385
3 256 392 255
3 204 393 394
3 390 288 287
3 395 204 396
3 272 159 273
3 196 200 216
3 349 351 358
3 397 398 176
3 391 345 288
3 196 216 223
3 192 202 105
3 355 206 385
3 286 399 134
3 241 400 242
3 141 401 345
3 402 403 404
3 385 405 377
3 310 313 199
3 406 403 402
3 86 295 118
3 407 408 409
3 48 410 402
3 256 361 392
3 411 199 398
3 412 350 349
3 413 412 349
3 204 394 396
3 367 394 354
3 384 394 322
3 370 406 410
3 393 354 394
3 414 415 416
3 417 418 83
3 206 419 385
3 385 419 405
3 271 372 388
3 294 357 356
3 420 321 327
3 368 401 330
3 386 46 45
3 125 19 8
3 421 422 423
3 424 100 102
3 23 283 425
3 345 368 346
3 286 345 347
3 177 179 426
3 48 402 365
3 321 420 387
3 372 427 428
3 429 113 187
3 247 362 248
3 362 53 248
3 403 358 196
3 406 412 403
3 430 431 432
3 426 284 177
3 203 192 224
3 345 401 368
3 176 398 370
3 346 263 347
3 398 350 412
3 176 370 172
3 295 344 333
3 269 271 101
3 83 82 433
3 198 310 199
3 313 70 69
3 359 181 315
3 328 321 156
3 295 333 118
3 135 212 361
3 358 351 359
3 402 404 365
3 322 295 98
3 434 284 426
3 403 412 349
3 410 48 354
3 102 101 124
3 169 171 334
3 286 347 399
3 410 406 402
3 157 370 393
3 239 331 401
3 387 420 388
3 326 49 366
3 212 135 371
3 314 382 246
3 370 410 393
3 105 104 192
3 228 209 371
3 354 393 410
3 401 331 330
3 403 196 404
3 195 435 436
3 403 349 358
3 322 394 367
3 163 201 133
3 194 435 195
3 104 182 152
3 365 404 222
3 367 344 295
3 223 404 196
3 406 398 412
3 347 228 371
3 200 216 180
3 399 347 371
3 157 393 204
3 237 136 135
3 399 371 135
3 134 399 135
3 437 438 284
3 284 438 99
3 320 224 308
3 141 239 401
3 222 404 223
3 288 345 286
3 158 328 156
3 196 358 315
3 48 50 344
3 159 161 273
3 376 439 173
3 440 269 101
3 327 321 328
3 175 376 173
3 389 261 387
3 347 262 228
3 441 442 443
3 330 375 368
3 199 69 350
3 263 262 347
3 326 366 121
3 298 250 299
3 205 167 231
3 141 345 391
3 398 406 370
3 119 121 366
3 140 444 299
3 445 446 447
3 407 448 443
3 390 287 139
3 23 425 24
3 449 450 451
3 452 449 451
3 186 332 331
3 453 52 454
3 455 319 456
3 341 343 457
3 442 407 443
3 273 52 453
3 297 444 357
3 407 409 448
3 458 459 2
3 458 460 461
3 462 463 464
3 463 336 464
3 185 184 300
3 136 294 134
3 84 453 454
3 465 466 75
3 465 467 466
3 334 171 468
3 469 470 70
3 471 310 378
3 219 221 83
3 239 95 94
3 472 473 343
3 474 475 432
3 94 186 95
3 9 400 476
3 477 478 340
3 458 2 461
3 425 447 446
3 479 67 66
3 480 479 66
3 256 235 361
3 481 482 330
3 483 198 197
3 433 484 485
3 54 31 486
3 141 391 390
3 396 394 384
3 31 24 486
3 487 488 489
3 464 335 490
3 286 134 287
3 451 450 491
3 492 493 494
3 461 460 495
3 84 496 497
3 95 331 94
3 460 54 495
3 459 458 495
3 282 447 283
3 171 494 468
3 498 499 464
3 458 461 495
3 449 2 450
3 248 53 52
3 492 500 468
3 494 492 468
3 461 54 460
3 140 95 141
3 76 466 501
3 492 493 500
3 175 502 503
3 300 378 310
3 504 505 455
3 235 237 361
3 300 184 378
3 84 454 496
3 506 437 318
3 161 52 273
3 23 475 507
3 455 456 508
3 300 301 500
3 94 331 239
3 507 509 281
3 2 54 461
3 462 510 463
3 511 512 363
3 274 453 84
3 335 416 490
3 24 425 487
3 313 312 70
3 478 339 340
3 513 505 504
3 70 470 154
3 52 246 248
3 2 1 54
3 54 486 495
3 240 242 339
3 514 515 516
3 517 92 512
3 518 498 464
3 519 514 268
3 520 521 522
3 187 113 112
3 464 499 462
3 523 493 492
3 174 173 327
3 327 376 420
3 246 52 161
3 171 523 494
3 439 376 327
3 173 439 327
3 173 439 524
3 420 376 271
3 493 523 500
3 523 300 500
3 523 492 494
3 283 447 425
3 299 444 297
3 328 158 207
3 525 507 475
3 334 468 335
3 471 312 310
3 171 185 523
3 519 514 516
3 185 300 523
3 499 336 463
3 499 463 462
3 356 444 287
3 386 212 46
3 197 199 411
3 52 38 454
3 336 335 464
3 390 139 141
3 271 388 420
3 398 199 350
3 69 71 350
3 71 351 350
3 71 526 351
3 361 386 377
3 392 361 377
3 386 361 212
3 387 261 321
3 136 309 293
3 42 153 43
3 153 278 43
3 44 278 45
3 290 281 291
3 348 374 45
3 181 359 527
3 528 389 388
3 529 528 388
3 530 529 388
3 528 389 529
3 40 496 454
3 289 291 57
3 220 274 221
3 388 531 530
3 529 397 528
3 531 388 372
3 428 531 372
3 530 397 529
3 40 532 496
3 531 533 530
3 531 397 530
3 534 533 531
3 428 534 531
3 534 397 531
3 397 176 261
3 534 411 397
3 445 153 16
3 411 534 428
3 535 411 428
3 235 255 536
3 153 445 290
3 537 32 4
3 538 330 332
3 497 532 539
3 514 516 268
3 540 541 542
3 41 43 543
3 43 278 42
3 544 281 509
3 535 197 411
3 472 342 545
3 411 398 397
3 235 536 546
3 543 278 37
3 539 532 41
3 547 226 338
3 153 548 278
3 17 153 41
3 282 281 290
3 15 17 41
3 392 377 405
3 43 42 543
3 42 278 543
3 549 537 550
3 551 405 419
3 40 80 532
3 507 281 283
3 56 348 45
3 90 229 262
3 446 445 16
3 445 282 290
3 551 419 33
3 92 39 363
3 536 255 392
3 23 507 283
3 209 229 210
3 35 37 208
3 4 32 19
3 38 40 454
3 55 125 60
3 317 513 552
3 36 543 37
3 75 466 76
3 35 543 36
3 546 551 32
3 548 153 290
3 22 475 23
3 537 546 32
3 548 290 289
3 41 153 42
3 192 152 202
3 549 546 537
3 363 512 92
3 45 289 56
3 496 532 497
3 32 551 33
3 538 481 330
3 33 419 206
3 289 57 56
3 553 546 549
3 309 136 237
3 41 34 15
3 554 526 71
3 536 255 256
3 359 351 526
3 551 392 405
3 71 87 554
3 363 39 53
3 324 554 87
3 554 555 526
3 527 30 181
3 278 548 45
3 73 80 40
3 556 80 81
3 504 557 558
3 45 548 289
3 80 556 559
3 212 208 46
3 555 560 526
3 527 359 526
3 116 561 117
3 554 560 555
3 555 560 562
3 560 562 526
3 208 44 46
3 447 282 445
3 554 307 560
3 560 307 562
3 563 527 526
3 208 210 35
3 90 91 229
3 429 241 268
3 482 375 330
3 515 429 268
3 264 62 96
3 92 12 39
3 562 563 526
3 307 563 562
3 105 116 115
3 92 564 13
3 554 25 307
3 80 16 34
3 40 18 73
3 429 400 241
3 532 80 41
3 563 30 527
3 554 26 25
3 203 116 105
3 24 487 495
3 28 30 563
3 29 59 30
3 486 24 495
3 563 307 28
3 546 536 551
3 425 488 487
3 536 392 551
3 302 266 252
3 565 243 218
3 308 561 320
3 566 302 252
3 304 305 285
3 274 273 453
3 303 302 566
3 567 456 568
3 569 570 571
3 476 547 337
3 165 114 112
3 57 572 58
3 573 456 567
3 225 231 226
3 249 369 250
3 14 574 72
3 202 192 203
3 221 84 83
3 14 72 47
3 257 566 252
3 128 107 575
3 129 128 575
3 226 547 187
3 559 72 576
3 559 556 72
3 559 81 556
3 177 276 565
3 577 35 210
3 578 579 580
3 80 559 576
3 302 561 266
3 581 250 298
3 582 166 165
3 565 218 329
3 187 547 429
3 129 575 583
3 584 582 165
3 547 338 337
3 561 302 117
3 308 279 267
3 220 272 274
3 72 556 81
3 107 585 575
3 63 586 587
3 320 561 116
3 576 16 80
3 588 58 572
3 231 167 338
3 13 589 316
3 112 429 515
3 267 561 308
3 561 260 266
3 291 572 57
3 277 285 275
3 259 252 266
3 379 477 380
3 586 588 474
3 357 444 356
3 275 306 257
3 586 474 587
3 178 565 329
3 64 588 586
3 443 590 441
3 107 109 585
3 591 68 592
3 572 593 588
3 64 58 588
3 594 595 596
3 109 597 585
3 598 268 599
3 597 109 111
3 543 35 577
3 381 478 379
3 600 580 579
3 519 268 598
3 601 417 602
3 452 467 603
3 165 515 598
3 604 509 544
3 291 604 544
3 525 291 544
3 309 237 236
3 18 47 72
3 63 64 586
3 186 331 95
3 587 474 431
3 515 514 519
3 604 281 544
3 515 519 598
3 381 605 478
3 565 178 177
3 467 575 603
3 597 606 603
3 547 476 400
3 61 63 587
3 305 306 275
3 106 191 102
3 257 306 566
3 607 605 381
3 575 597 603
3 285 305 275
3 465 575 467
3 375 88 263
3 303 566 306
3 378 183 608
3 609 417 485
3 610 611 612
3 165 598 584
3 276 243 565
3 472 545 613
3 276 244 243
3 281 604 291
3 291 525 593
3 561 267 260
3 575 585 597
3 575 465 583
3 614 615 159
3 124 175 503
3 240 339 605
3 275 251 277
3 597 111 606
3 616 110 151
3 244 277 251
3 240 605 607
3 99 617 254
3 299 250 369
3 618 0 606
3 593 572 291
3 229 91 619
3 339 242 11
3 242 9 11
3 588 593 474
3 362 247 511
3 620 621 26
3 429 547 400
3 298 297 357
3 620 470 469
3 319 329 622
3 298 357 294
3 623 382 624
3 382 623 511
3 511 623 517
3 518 145 625
3 578 626 609
3 623 624 160
3 623 627 517
3 627 589 564
3 517 627 564
3 589 13 564
3 615 628 159
3 626 417 609
3 628 160 159
3 628 623 160
3 623 629 627
3 629 589 627
3 429 112 113
3 324 323 470
3 630 480 66
3 628 629 623
3 631 316 589
3 629 631 589
3 632 633 634
3 590 522 635
3 636 637 638
3 605 339 478
3 595 343 639
3 343 473 639
3 574 14 316
3 631 574 316
3 603 449 452
3 640 608 641
3 479 642 643
3 644 645 594
3 594 645 595
3 89 88 482
3 629 574 631
3 516 515 268
3 646 647 644
3 644 647 645
3 648 473 472
3 649 641 650
3 7 33 8
3 651 595 645
3 595 651 343
3 210 619 577
3 652 628 615
3 652 574 629
3 628 652 629
3 474 593 525
3 653 654 655
3 590 647 646
3 647 651 645
3 654 635 655
3 517 564 92
3 614 656 615
3 656 652 615
3 652 657 574
3 658 538 249
3 409 457 651
3 441 635 654
3 590 443 647
3 448 651 647
3 659 432 22
3 475 474 525
3 220 660 614
3 614 660 656
3 657 72 574
3 195 654 653
3 193 195 653
3 195 441 654
3 441 590 635
3 443 448 647
3 661 457 409
3 343 342 472
3 656 657 652
3 657 576 72
3 482 658 249
3 430 31 1
3 662 663 664
3 430 659 31
3 643 632 665
3 427 270 666
3 242 400 9
3 31 659 22
3 667 664 663
3 668 75 74
3 89 482 249
3 229 619 210
3 491 669 670
3 671 672 673
3 603 0 2
3 449 603 2
3 656 576 657
3 467 501 466
3 91 89 249
3 581 91 250
3 467 452 501
3 452 451 501
3 642 26 643
3 67 674 634
3 648 675 667
3 68 591 66
3 485 417 433
3 508 456 573
3 83 418 219
3 219 418 660
3 660 576 656
3 22 432 475
3 634 592 674
3 424 440 101
3 67 634 592
3 550 537 4
3 436 676 571
3 540 677 541
3 541 677 670
3 677 491 670
3 678 669 491
3 678 679 669
3 679 626 669
3 671 680 672
3 681 608 640
3 418 682 660
3 682 576 660
3 675 633 664
3 648 667 663
3 683 619 581
3 619 91 581
3 633 650 664
3 144 684 685
3 477 435 686
3 676 436 435
3 569 687 688
3 688 687 540
3 687 76 540
3 540 76 677
3 459 679 678
3 682 16 576
3 409 651 448
3 602 489 601
3 488 682 418
3 340 676 435
3 676 10 571
3 76 501 677
3 677 451 491
3 144 143 684
3 459 495 489
3 577 619 683
3 682 446 16
3 430 432 659
3 340 11 676
3 11 10 676
3 687 74 76
3 677 501 451
3 450 678 491
3 450 2 678
3 2 459 678
3 495 487 489
3 446 682 488
3 425 446 488
3 621 637 636
3 617 99 438
3 522 521 655
3 427 372 270
3 301 483 500
3 621 638 636
3 270 269 440
3 66 689 680
3 395 207 204
3 26 554 324
3 324 620 26
3 690 185 170
3 666 270 440
3 469 312 691
3 620 681 692
3 681 691 608
3 198 483 301
3 511 363 362
3 4 693 550
3 666 500 483
3 312 471 691
3 680 613 672
3 323 155 154
3 3 480 630
3 21 26 642
3 444 140 139
3 543 539 41
3 693 671 673
3 550 693 673
3 479 21 642
3 4 3 630
3 672 545 673
3 274 84 221
3 193 694 194
3 643 637 632
3 675 664 667
3 26 637 643
3 591 689 66
3 477 340 435
3 577 539 543
3 577 683 539
3 309 497 539
3 309 82 497
3 155 323 87
3 535 483 197
3 620 637 621
3 672 613 545
3 67 643 665
3 636 638 26
3 695 696 697
3 325 683 581
3 609 485 578
3 632 637 698
3 4 630 693
3 66 671 630
3 485 699 578
3 697 520 522
3 649 650 633
3 236 484 82
3 700 505 513
3 689 613 680
3 484 699 485
3 637 620 698
3 70 312 469
3 236 553 484
3 553 701 484
3 484 701 699
3 579 578 699
3 702 641 703
3 630 671 693
3 522 655 635
3 469 691 681
3 638 637 26
3 70 155 87
3 640 641 649
3 426 179 318
3 553 236 235
3 701 704 699
3 704 579 699
3 671 66 680
3 648 663 473
3 546 553 235
3 621 636 26
3 705 625 145
3 620 469 681
3 3 21 480
3 261 528 397
3 553 549 701
3 640 649 692
3 650 641 664
3 643 67 479
3 698 692 633
3 428 427 535
3 698 620 692
3 535 427 483
3 549 550 701
3 550 704 701
3 673 579 704
3 673 600 579
3 641 702 664
3 435 194 686
3 324 470 620
3 675 648 689
3 427 666 483
3 481 538 658
3 648 472 689
3 550 673 704
3 545 600 673
3 21 479 480
3 541 670 421
3 423 706 707
3 695 145 696
3 639 473 663
3 424 708 440
3 708 500 666
3 440 708 666
3 709 661 407
3 571 709 407
3 102 191 424
3 191 708 424
3 710 380 686
3 433 82 484
3 602 459 489
3 325 581 298
3 570 707 661
3 417 601 418
3 191 711 708
3 708 711 500
3 342 341 707
3 542 707 570
3 660 220 219
3 711 468 500
3 712 713 570
3 569 712 570
3 88 375 482
3 714 542 570
3 414 711 191
3 713 714 570
3 342 580 545
3 661 707 341
3 378 608 691
3 314 161 624
3 709 570 661
3 661 408 407
3 602 417 626
3 570 709 571
3 713 542 714
3 471 378 691
3 424 101 100
3 715 407 442
3 416 335 711
3 414 416 711
3 287 444 139
3 436 715 442
3 334 336 169
3 545 580 600
3 634 674 632
3 624 382 314
3 690 716 183
3 717 539 683
3 684 558 718
3 155 470 323
3 169 336 499
3 169 719 170
3 499 719 169
3 408 661 409
3 661 341 457
3 720 690 170
3 690 721 716
3 722 183 716
3 722 723 608
3 183 722 608
3 608 723 641
3 724 421 707
3 717 325 293
3 488 601 489
3 725 194 694
3 379 478 477
3 459 626 679
3 719 720 170
3 726 690 720
3 690 726 721
3 721 722 716
3 692 681 640
3 261 389 528
3 195 436 441
3 670 669 421
3 67 665 632
3 717 683 325
3 456 319 622
3 459 602 626
3 498 719 499
3 719 727 720
3 436 442 441
3 342 706 580
3 498 728 719
3 728 727 719
3 727 726 720
3 185 690 183
3 707 706 342
3 633 632 698
3 422 626 578
3 721 729 722
3 730 703 723
3 723 703 641
3 726 729 721
3 729 731 722
3 731 730 723
3 722 731 723
3 674 67 632
3 318 179 178
3 732 733 558
3 601 488 418
3 518 625 498
3 592 634 633
3 713 714 712
3 725 686 194
3 675 591 633
3 498 705 728
3 728 734 727
3 734 735 727
3 727 735 726
3 591 592 633
3 423 578 580
3 417 83 433
3 724 707 542
3 571 407 715
3 735 736 726
3 736 729 726
3 731 737 730
3 737 738 703
3 730 737 703
3 738 662 703
3 662 702 703
3 511 247 382
3 688 542 569
3 309 717 293
3 695 705 145
3 498 625 705
3 739 728 705
3 739 734 728
3 736 740 729
3 740 731 729
3 731 740 737
3 664 702 662
3 725 710 686
3 432 431 474
3 707 421 423
3 538 332 186
3 93 538 186
3 736 735 734
3 470 155 154
3 669 626 422
3 464 741 610
3 421 669 422
3 455 505 319
3 742 738 737
3 738 742 662
3 541 421 724
3 162 369 93
3 369 538 93
3 539 717 309
3 739 736 734
3 542 713 712
3 569 542 712
3 541 724 542
3 482 481 658
3 706 423 580
3 692 649 633
3 596 740 736
3 743 737 740
3 743 744 737
3 744 745 737
3 745 742 737
3 240 607 599
3 369 249 538
3 705 695 739
3 743 745 744
3 335 468 711
3 67 592 68
3 746 736 739
3 736 644 596
3 596 743 740
3 596 744 743
3 596 745 744
3 596 742 745
3 380 477 686
3 299 162 140
3 497 82 84
3 268 240 599
3 651 457 343
3 540 542 688
3 423 422 578
3 695 697 739
3 739 697 746
3 646 736 746
3 646 644 736
3 594 596 644
3 742 639 662
3 606 0 603
3 472 613 689
3 663 662 639
3 675 689 591
3 571 715 436
3 568 456 622
3 161 160 624
3 697 522 746
3 522 590 746
3 590 646 746
3 595 742 596
3 595 639 742
3 165 112 515
3 317 505 700
3 318 747 319
3 748 749 732
3 750 733 751
3 752 753 754
3 755 756 757
3 254 617 755
3 758 753 752
3 415 490 416
3 415 758 490
3 220 614 272
3 503 758 415
3 757 754 753
3 756 755 759
3 760 761 741
3 754 756 762
3 763 764 765
3 766 765 732
3 552 513 504
3 437 434 767
3 503 753 758
3 504 455 508
3 1 0 430
3 205 148 167
3 0 618 430
3 749 766 732
3 768 766 749
3 430 618 769
3 770 749 768
3 741 770 768
3 755 617 759
3 769 771 431
3 611 748 612
3 490 741 464
3 767 426 318
3 618 772 769
3 384 254 755
3 766 773 765
3 769 774 771
3 775 504 776
3 759 437 506
3 518 143 145
3 437 767 318
3 769 777 774
3 774 771 777
3 774 778 431
3 771 774 431
3 775 317 504
3 777 778 774
3 778 587 431
3 612 558 684
3 175 174 502
3 769 772 777
3 750 751 732
3 318 178 747
3 434 426 767
3 207 174 328
3 207 395 502
3 552 700 513
3 777 772 778
3 124 415 414
3 124 503 415
3 606 772 618
3 360 96 61
3 684 718 685
3 143 779 612
3 430 769 431
3 780 465 75
3 765 764 317
3 616 778 772
3 294 356 287
3 757 384 755
3 668 780 75
3 733 750 504
3 750 781 775
3 616 606 111
3 616 772 606
3 782 668 74
3 733 504 751
3 778 61 587
3 757 396 384
3 765 750 732
3 569 782 687
3 111 110 616
3 748 768 749
3 668 782 783
3 583 465 780
3 612 684 143
3 754 762 773
3 287 134 294
3 124 414 191
3 741 768 748
3 616 360 778
3 360 61 778
3 611 741 748
3 74 687 782
3 502 395 753
3 360 616 151
3 747 178 329
3 395 757 753
3 733 751 558
3 773 766 761
3 395 396 757
3 571 10 569
3 569 10 782
3 668 783 780
3 694 710 725
3 437 284 434
3 783 784 780
3 780 784 583
3 785 380 710
3 785 381 380
3 607 785 599
3 464 610 779
3 750 317 781
3 782 476 783
3 757 756 754
3 319 747 329
3 438 437 759
3 174 207 502
3 10 476 782
3 758 760 490
3 337 783 476
3 337 784 783
3 784 129 583
3 59 182 181
3 329 217 383
3 786 785 710
3 525 509 507
3 599 787 598
3 544 509 525
3 786 710 694
3 159 272 614
3 779 143 518
3 768 770 766
3 653 788 193
3 788 694 193
3 789 694 788
3 789 786 694
3 598 787 584
3 784 167 129
3 751 504 558
3 317 552 504
3 779 610 612
3 696 653 521
3 790 788 653
3 696 521 520
3 790 653 696
3 787 582 584
3 622 599 785
3 622 787 599
3 337 167 784
3 464 779 518
3 502 753 503
3 697 696 520
3 791 786 789
3 791 792 786
3 622 582 787
3 517 512 511
3 617 438 759
3 718 788 790
3 718 789 788
3 718 793 789
3 751 733 732
3 794 790 696
3 607 381 785
3 762 763 765
3 794 795 790
3 795 796 790
3 790 796 718
3 761 766 770
3 145 144 696
3 144 794 696
3 795 796 794
3 653 655 521
3 144 795 794
3 144 685 796
3 795 144 796
3 750 775 776
3 685 718 796
3 383 582 622
3 317 700 513
3 750 776 504
3 508 792 791
3 762 765 773
3 781 775 776
3 732 558 748
3 383 166 582
3 490 760 741
3 781 317 775
3 748 558 612
3 610 741 611
3 558 793 718
3 558 557 793
3 765 317 750
3 761 770 741
3 567 797 792
3 329 383 622
3 573 792 508
3 792 573 567
3 573 567 797
3 567 568 797
3 763 506 764
3 763 759 506
3 762 759 763
3 762 756 759
3 504 508 557
3 793 557 791
3 754 773 752
3 760 758 752
3 317 319 505
3 786 622 785
3 317 764 318
3 764 506 318
3 476 10 9
3 786 568 622
3 568 786 792
3 792 797 568
3 557 508 791
3 789 793 791
3 773 761 760
3 760 752 773
