ply
format ascii 1.0
comment Created by Blender 3.4.0 - www.blender.org
element vertex 244
property float x
property float y
property float z
element face 485
property list uchar uint vertex_indices
end_header
-0.576620 -0.283847 0.701127
-0.706216 -0.185363 0.791204
-0.627452 -0.086365 0.699765
-0.299180 -0.152121 0.202381
-0.355427 -0.014078 0.218342
-0.300856 -0.140625 0.128203
0.094197 -0.056940 0.902600
0.261803 -0.143990 0.919507
0.242842 0.022434 0.896032
-0.699771 -0.275530 0.820207
-0.664707 -0.159001 0.964239
-0.668213 -0.054381 0.915346
0.167318 -0.243815 0.902132
0.372635 -0.235729 0.860528
-0.509117 0.211540 1.255132
-0.506955 -0.027982 1.139541
-0.454118 0.113103 1.197705
0.233841 -0.339337 0.824450
0.035033 -0.323496 0.817646
-0.413992 0.428187 1.280829
-0.468952 -0.497844 0.759034
-0.474320 -0.491774 0.880123
-0.582187 -0.495497 0.904330
-0.515555 -0.379601 1.089735
-0.279721 0.028841 0.891873
-0.465667 0.081770 0.982605
-0.411574 0.089942 1.032360
-0.459529 0.530089 1.389683
-0.544113 0.467781 1.350725
-0.077021 -0.104236 0.866270
-0.368574 -0.415004 0.595982
-0.469904 -0.356865 0.696881
-0.470053 -0.412817 0.512846
0.353337 -0.460391 0.205811
0.234531 -0.520841 0.247417
0.159251 -0.509963 0.175711
0.145379 -0.532059 0.302115
-0.045448 0.022147 1.161795
-0.273911 -0.101357 1.072062
-0.272823 -0.045870 1.026257
0.149179 -0.548315 0.385424
0.282816 -0.520378 0.505410
0.128581 -0.524497 0.574516
0.220845 -0.429770 0.084521
0.348868 -0.502420 0.391142
0.699401 -0.028847 0.136550
0.715970 -0.179945 0.134989
0.541085 -0.002280 0.046144
-0.376327 -0.404931 0.401839
-0.282139 -0.304528 0.778169
0.687268 -0.275818 0.274377
0.495234 -0.306517 0.140287
0.595273 -0.306898 0.143057
0.259347 -0.456883 0.611924
-0.334270 -0.448556 0.058906
-0.270321 -0.346057 0.153565
-0.404851 -0.356491 0.116844
-0.233245 -0.372740 0.691818
0.383360 -0.401557 0.663859
0.440544 -0.318651 0.754455
0.425769 0.186225 0.138437
0.388970 0.253845 0.243973
0.534183 0.130198 0.296307
0.595278 -0.246203 0.317340
-0.090383 -0.502947 0.064914
-0.124846 -0.438143 0.005564
-0.007355 -0.497441 0.013477
-0.277882 -0.426999 0.536741
-0.268291 0.119838 -0.005867
-0.399445 0.070659 0.063188
-0.225777 0.107721 0.117596
0.627845 -0.102384 0.376837
0.595876 0.045100 0.504815
0.603935 -0.050475 0.612566
0.411821 -0.441285 0.536696
-0.228978 -0.403937 0.392661
-0.340156 -0.115891 1.141257
-0.250545 -0.051789 1.223952
-0.192075 -0.407010 0.567683
-0.193252 -0.403462 0.011294
-0.164752 -0.368596 0.127178
0.191709 -0.416790 0.636739
0.148330 -0.405803 0.724598
0.065647 -0.412630 0.634149
-0.131444 -0.351893 0.701147
-0.098428 -0.272231 0.806710
-0.385132 -0.194794 0.046536
-0.308397 -0.256360 0.147912
-0.180676 -0.393591 0.274676
-0.112530 -0.397766 0.471359
-0.005974 0.182754 1.424962
-0.191920 0.121001 1.208345
-0.217588 0.049487 1.296250
-0.068621 -0.335283 0.197427
-0.035518 -0.430773 0.585794
0.698796 -0.216353 0.350489
0.388437 -0.038689 0.864394
-0.674564 -0.226904 1.055945
-0.666593 -0.130824 1.098951
0.012625 -0.450353 0.147995
-0.020770 -0.498562 0.112755
-0.317631 0.010515 1.041819
0.018997 0.128506 1.188597
0.598332 -0.000241 0.310396
0.017355 -0.492760 0.288647
-0.036397 -0.526801 0.455967
-0.559330 0.362730 1.267803
0.049341 -0.369768 0.050513
-0.159641 -0.294968 0.002607
0.346699 -0.406755 0.025828
0.344995 -0.409559 0.130186
0.048916 0.216598 1.416070
0.104987 0.253791 1.291791
0.077425 0.281573 1.387752
0.366212 -0.461513 0.304980
-0.157050 0.189448 0.417971
-0.317616 0.202987 0.610402
-0.128182 0.238821 0.483701
-0.426276 -0.374106 1.051324
-0.384342 -0.404989 0.837273
-0.381740 0.578374 1.275113
-0.404957 -0.344985 0.963981
-0.205955 -0.052145 1.157697
-0.071582 0.064307 1.369674
0.532014 -0.349142 0.301697
-0.346425 -0.301489 1.115184
-0.295649 -0.318700 0.274057
-0.321631 -0.271144 0.988269
-0.270860 -0.274581 0.907807
0.080458 0.141518 1.224133
-0.110789 0.058621 1.238541
0.603171 -0.222008 0.532481
0.460313 -0.110822 0.000753
0.371399 -0.001050 0.003159
-0.225516 -0.132493 0.896068
0.521540 -0.368568 0.536358
0.771045 -0.100068 0.279713
-0.659646 -0.355526 0.736826
-0.690112 -0.398311 0.804684
0.517815 -0.230684 0.743930
0.540106 0.073579 0.642171
-0.444242 0.503590 1.143168
-0.415618 0.570682 1.249083
0.480999 0.042463 0.765349
0.320071 0.130044 0.804070
-0.356335 0.032264 0.124966
-0.027076 0.194735 1.300904
0.210886 -0.429251 0.010945
-0.481925 0.420182 1.100859
-0.426905 0.299607 1.082652
0.670872 0.042913 0.235963
-0.251768 0.118721 0.251590
-0.119879 0.098450 0.192966
-0.597443 -0.021630 1.025214
0.548508 0.058117 0.211566
0.490307 0.075310 0.146846
-0.483179 0.201904 1.048510
-0.053741 0.232460 0.582476
-0.069110 0.333753 0.514595
-0.638879 -0.356599 1.021497
0.157411 0.197034 0.732116
0.029176 0.147499 0.771316
0.116583 0.075469 0.860554
-0.384850 0.085339 0.812774
-0.680105 -0.082433 0.770884
-0.623735 0.027469 0.844565
-0.635061 -0.022629 0.485908
-0.670185 -0.142795 0.565469
-0.586912 0.072437 0.594331
-0.387864 0.200907 1.156435
-0.397018 0.016214 1.093616
-0.593574 -0.055589 0.381669
-0.587952 -0.205197 0.385011
0.487388 -0.223817 0.032578
0.514801 0.159287 0.430514
0.434530 0.230001 0.379877
0.188194 -0.380495 0.005469
-0.469521 -0.057031 0.094115
-0.422700 -0.288841 0.070266
-0.417402 -0.289724 0.081238
-0.430680 -0.288315 0.053846
-0.088602 0.280011 -0.001471
-0.228679 0.250013 0.004503
-0.141622 0.266937 0.101877
0.321407 0.201165 0.008930
-0.507131 -0.218898 1.151162
-0.547903 0.145733 1.168574
0.723951 -0.054434 0.355973
-0.546024 0.050765 0.372823
-0.501247 0.149678 0.461335
-0.392713 0.179156 0.386658
-0.144603 0.175385 0.723164
-0.382096 -0.031838 1.143690
-0.582778 -0.297064 0.443586
-0.345079 0.160158 0.734249
-0.433905 -0.380811 0.007372
-0.456679 -0.329727 0.334617
-0.543525 0.039808 1.075948
-0.499857 -0.075428 0.016392
-0.462332 0.055016 -0.003963
-0.606134 -0.438008 0.738420
-0.059278 0.244428 0.147092
-0.398325 -0.186230 0.001498
-0.625098 -0.260574 0.607835
-0.030544 0.213213 0.678248
-0.494191 0.393211 1.222926
-0.540204 0.050668 0.740834
-0.511326 0.291996 1.083356
-0.517102 0.198828 1.132777
0.391685 0.186420 0.643233
0.168172 0.217459 0.624391
-0.110855 0.303319 0.402327
0.358680 0.223005 0.571119
0.264879 0.297186 0.548607
-0.042946 0.356319 0.355279
0.064583 0.338032 0.560565
-0.289812 0.130189 0.319225
-0.477909 -0.001900 0.287248
0.486390 0.166300 0.552835
-0.099111 0.076438 0.818243
-0.229271 0.100782 0.846827
0.145845 0.352723 0.437290
-0.408632 0.166849 0.632837
0.287839 0.257523 0.137472
0.278825 0.306769 0.365359
0.083186 0.249839 0.080774
0.186830 0.315701 0.263438
0.044146 0.242579 -0.000690
0.057908 0.318926 0.181141
0.039257 0.369928 0.481286
0.227110 -0.034624 -0.000684
0.255018 0.144862 0.007922
0.344667 -0.302996 0.002431
0.273860 -0.235313 0.003955
0.246626 -0.287124 0.048844
-0.094187 -0.278887 0.037132
-0.124042 -0.136525 -0.002704
0.143084 -0.121917 0.033527
0.242202 0.093973 0.049325
-0.098594 -0.036531 0.037589
-0.101307 0.164348 0.042121
-0.462714 -0.136503 0.246334
-0.237621 -0.058156 0.003298
-0.165159 0.182785 0.001404
3 0 1 2
3 3 4 5
3 6 7 8
3 9 10 11
3 7 12 13
3 1 9 11
3 14 15 16
3 17 12 18
3 7 6 12
3 19 14 16
3 20 21 22
3 21 23 22
3 24 25 26
3 27 28 14
3 6 29 12
3 30 31 32
3 33 34 35
3 35 34 36
3 12 29 18
3 37 38 39
3 40 41 42
3 33 35 43
3 44 36 34
3 45 46 47
3 48 30 32
3 30 49 31
3 50 51 52
3 41 53 42
3 54 55 56
3 30 57 49
3 17 58 59
3 60 61 62
3 50 63 51
3 64 65 66
3 48 67 30
3 67 57 30
3 68 69 70
3 71 72 73
3 53 74 58
3 75 67 48
3 76 38 77
3 78 57 67
3 79 80 54
3 54 80 55
3 67 75 78
3 81 82 83
3 78 84 57
3 57 85 49
3 86 87 5
3 81 58 17
3 75 88 89
3 84 85 57
3 90 91 92
3 93 88 80
3 75 89 78
3 58 81 53
3 93 89 88
3 89 94 78
3 94 84 78
3 95 63 50
3 17 18 82
3 8 7 96
3 97 98 10
3 99 93 100
3 37 101 102
3 84 18 85
3 13 17 59
3 82 84 94
3 62 72 103
3 83 82 94
3 82 18 84
3 35 104 99
3 104 36 105
3 40 42 105
3 35 36 104
3 44 40 36
3 14 28 106
3 107 65 108
3 36 40 105
3 43 35 99
3 109 110 43
3 111 112 113
3 33 114 34
3 34 114 44
3 43 99 100
3 115 116 117
3 21 118 23
3 119 21 20
3 19 120 27
3 121 118 21
3 31 119 20
3 119 121 21
3 122 123 77
3 63 124 51
3 44 74 41
3 40 44 41
3 122 77 38
3 121 125 118
3 31 49 119
3 88 126 55
3 127 121 119
3 127 125 121
3 128 127 119
3 119 49 128
3 129 130 37
3 43 110 33
3 71 73 131
3 110 51 33
3 109 51 110
3 124 33 51
3 129 112 111
3 47 132 133
3 49 134 128
3 134 24 39
3 18 29 85
3 58 135 59
3 37 130 122
3 46 136 50
3 114 124 44
3 9 137 138
3 66 100 64
3 63 131 124
3 130 123 122
3 135 139 59
3 72 140 73
3 135 44 124
3 135 74 44
3 124 114 33
3 50 136 95
3 141 142 120
3 143 144 96
3 135 58 74
3 129 111 130
3 41 74 53
3 69 145 70
3 81 17 82
3 91 146 102
3 37 122 38
3 100 147 43
3 148 141 149
3 150 136 45
3 46 50 52
3 70 151 152
3 111 123 130
3 75 126 88
3 131 135 124
3 129 37 102
3 10 153 11
3 151 115 152
3 62 154 155
3 39 101 37
3 156 26 25
3 157 158 117
3 159 23 98
3 8 160 161
3 162 8 161
3 103 72 71
3 25 24 163
3 164 1 11
3 11 153 165
3 166 167 168
3 26 169 170
3 133 60 155
3 171 172 166
3 46 173 132
3 62 174 72
3 62 175 174
3 176 147 65
3 141 169 149
3 62 103 154
3 149 169 26
3 177 5 145
3 169 120 19
3 2 1 164
3 178 56 179
3 180 178 86
3 181 182 183
3 131 139 135
3 120 169 141
3 46 45 136
3 10 98 153
3 159 97 10
3 180 178 179
3 60 62 155
3 127 38 125
3 60 133 184
3 73 139 131
3 134 39 127
3 127 39 38
3 185 98 23
3 156 149 26
3 14 186 15
3 187 71 95
3 98 185 15
3 63 95 71
3 178 179 86
3 188 189 190
3 157 116 191
3 71 131 63
3 170 16 15
3 134 127 128
3 15 76 192
3 23 118 125
3 185 125 76
3 19 16 169
3 77 192 76
3 15 185 76
3 169 16 170
3 29 134 85
3 85 134 49
3 24 134 29
3 73 143 139
3 136 187 95
3 125 185 23
3 38 76 125
3 13 59 139
3 83 94 42
3 123 92 77
3 143 96 139
3 90 123 111
3 56 87 86
3 27 14 19
3 96 13 139
3 53 81 42
3 81 83 42
3 12 17 13
3 7 13 96
3 3 87 126
3 23 159 22
3 80 88 55
3 90 146 91
3 48 32 193
3 112 129 102
3 194 191 116
3 105 94 89
3 195 54 56
3 64 80 79
3 48 193 196
3 94 105 42
3 197 15 186
3 198 177 199
3 93 104 89
3 22 138 200
3 65 64 79
3 152 201 70
3 195 86 202
3 203 32 31
3 180 86 195
3 167 193 203
3 101 39 24
3 56 178 180
3 56 180 195
3 20 22 200
3 89 104 105
3 202 177 198
3 99 104 93
3 100 80 64
3 157 191 204
3 100 93 80
3 87 55 126
3 98 97 159
3 193 32 203
3 86 5 177
3 203 31 0
3 86 177 202
3 43 147 109
3 22 159 138
3 205 142 141
3 142 205 28
3 194 206 163
3 205 141 148
3 205 106 28
3 207 208 148
3 206 25 163
3 208 205 148
3 160 209 210
3 211 117 158
3 186 14 106
3 212 175 213
3 92 123 90
3 205 186 106
3 179 56 86
3 201 152 214
3 214 152 211
3 211 115 117
3 77 92 192
3 208 186 205
3 152 115 211
3 47 46 132
3 70 183 182
3 10 138 159
3 156 197 207
3 207 197 208
3 68 70 182
3 70 201 183
3 117 116 157
3 5 87 3
3 203 0 2
3 167 203 2
3 193 166 172
3 193 167 166
3 157 210 215
3 25 197 156
3 208 197 186
3 9 138 10
3 145 4 216
3 188 166 189
3 189 166 168
3 209 175 212
3 140 143 73
3 192 92 91
3 210 213 215
3 177 145 69
3 217 171 188
3 188 171 166
3 206 164 165
3 197 98 15
3 145 5 4
3 167 2 168
3 2 206 168
3 2 164 206
3 164 11 165
3 98 197 153
3 187 136 150
3 173 52 51
3 209 218 175
3 142 27 120
3 150 154 103
3 72 174 218
3 143 140 209
3 96 144 8
3 192 170 15
3 219 161 191
3 29 6 162
3 160 204 161
3 101 24 170
3 161 204 191
3 29 162 219
3 163 220 194
3 212 213 210
3 24 220 163
3 144 143 209
3 140 72 218
3 91 102 101
3 191 194 220
3 215 213 221
3 162 161 219
3 157 215 158
3 140 218 209
3 6 8 162
3 24 29 220
3 144 160 8
3 71 187 103
3 29 219 220
3 210 157 204
3 187 150 103
3 111 113 90
3 219 191 220
3 189 168 222
3 222 116 190
3 45 155 150
3 155 154 150
3 47 155 45
3 25 165 197
3 116 115 190
3 216 190 115
3 174 175 218
3 165 25 206
3 47 133 155
3 188 190 217
3 60 184 223
3 101 170 192
3 60 223 61
3 151 216 115
3 224 175 61
3 175 224 213
3 189 222 190
3 199 69 68
3 101 192 91
3 145 151 70
3 184 225 223
3 223 226 61
3 62 61 175
3 222 206 194
3 61 226 224
3 224 221 213
3 226 221 224
3 165 153 197
3 184 227 225
3 225 228 223
3 223 228 226
3 222 194 116
3 229 215 221
3 4 190 216
3 226 228 221
3 168 206 222
3 184 230 231
3 221 214 229
3 217 190 4
3 146 113 112
3 209 212 210
3 228 214 221
3 146 90 113
3 201 228 225
3 199 177 69
3 146 112 102
3 170 24 26
3 227 181 225
3 225 181 201
3 201 214 228
3 214 158 229
3 215 229 158
3 210 204 160
3 144 209 160
3 216 151 145
3 181 183 201
3 211 158 214
3 56 55 87
3 109 147 232
3 156 207 149
3 232 233 132
3 233 232 234
3 235 108 236
3 1 0 9
3 75 48 126
3 9 0 137
3 232 147 176
3 133 230 184
3 237 233 234
3 147 66 65
3 137 200 138
3 238 239 240
3 0 200 137
3 234 107 235
3 31 200 0
3 241 172 171
3 232 51 109
3 234 235 237
3 196 193 172
3 238 240 231
3 31 20 200
3 238 230 237
3 171 217 241
3 173 232 132
3 233 237 230
3 173 51 232
3 217 4 241
3 147 100 66
3 241 196 172
3 202 198 199
3 108 65 79
3 46 52 173
3 4 3 241
3 126 241 3
3 126 196 241
3 242 202 199
3 242 199 68
3 148 149 207
3 182 243 68
3 196 126 48
3 243 182 181
3 108 195 202
3 184 231 227
3 28 27 142
3 240 68 243
3 240 239 68
3 227 231 181
3 231 243 181
3 79 195 108
3 236 242 68
3 235 239 237
3 79 54 195
3 237 239 238
3 231 230 238
3 243 231 240
3 234 176 107
3 234 232 176
3 235 236 239
3 107 108 235
3 242 108 202
3 107 176 65
3 108 242 236
3 239 236 68
3 233 230 133
3 133 132 233
